<?xml version="1.0" encoding="UTF-8" standalone="yes"?><svg xmlns="http://www.w3.org/2000/svg" width="167" height="116" fill="none"><path fill="#CC0034" d="M21 0h122v98L21 116V0Z" style=""/><path fill="url(#a)" d="M60.625 42.341C46.75 32.172 30 5.394 30 5l-1.5-2.5 35.5 30-3.375 9.841Z" opacity=".9" style=""/><path fill="url(#b)" d="m130 3-22 24.877L110.444 36l18.334-28.938L130 3Z" opacity=".9" style=""/><path fill="url(#c)" d="M44 49.325 27 11l17 27.23v11.095Z" opacity=".9" style=""/><path fill="url(#d)" d="M113 62.436 133 5c-4.206 21.262-11.988 61.897-12.406 68.945.299.66.365 1.055.098 1.055-.109 0-.138-.368-.098-1.055-1.078-2.383-5.185-8.23-7.594-11.51Z" opacity=".9" style=""/><path fill="url(#e)" d="m137.492 4-1.703 13.006c-2.164 24.626-1.383 62.349-.451 70.48.504.97.686 1.578.354 1.578-.116 0-.236-.554-.354-1.579-1.364-2.63-5.09-7.925-7.338-10.985l7.789-59.493c.439-4.993.999-9.447 1.703-13.007Z" opacity=".9" style=""/><path fill="#000" fill-rule="evenodd" d="M21.98 42.055c-1.81-1.706-4.368-2.56-7.672-2.56H6.122v5.349h9.141c1.615 0 2.704.47 3.267 1.413.563.917.844 1.872.844 2.865 0 .586-.134 1.197-.403 1.834-.27.637-.71 1.197-1.322 1.68a3.052 3.052 0 0 1-.622.36l-4.934-8.016h-5.97l5.136 8.344H6.122v14.288h5.323V58.71h3.13l5.479 8.9h5.97l-6.077-9.873c.261-.133.511-.28.749-.44 1.42-.943 2.435-2.14 3.047-3.592.636-1.477.954-3.056.954-4.737 0-2.928-.905-5.233-2.716-6.914ZM36.493 62.74h8.77l2.048 5.345h6.037L41.416 39.691h-.288l-11.93 28.393h5.138l2.157-5.345Zm4.493-11.171 2.551 6.643h-5.21l2.659-6.643Zm33.073 4.75c-.767-1.088-1.846-1.966-3.235-2.635a6.45 6.45 0 0 0 2.336-2.45c.551-1.038.826-2.238.826-3.6 0-2.226-.802-3.921-2.407-5.084-1.606-1.188-3.81-1.782-6.613-1.782h-7.762v27.317h8.804c2.636 0 4.828-.643 6.577-1.93 1.773-1.311 2.66-3.353 2.66-6.124 0-1.41-.396-2.648-1.186-3.712Zm-8.482-4.379h-3.162v-5.976h2.803c1.054 0 1.88.248 2.48.743.599.47.898 1.163.898 2.078 0 .89-.264 1.646-.79 2.264-.528.594-1.27.891-2.229.891Zm3.127 10.392c-.743.495-1.725.742-2.947.742h-3.342v-5.938h2.983c2.97 0 4.456.965 4.456 2.895 0 1.014-.384 1.782-1.15 2.301Zm61.55-21.564v28.43h-.144L111.602 51.94l.108 16.145h-5.283V39.691h.215l18.472 17.518-.108-16.442h5.247Zm11.124 21.972h8.769l2.048 5.345h6.038l-11.931-28.393h-.288l-11.931 28.393h5.139l2.156-5.345Zm4.492-11.171 2.552 6.643h-5.211l2.659-6.643ZM99.814 41.75H81.227v5.49h18.587v-5.49Zm-9.293 26.763c5.132 0 9.293-4.3 9.293-9.606s-4.16-9.607-9.293-9.607c-5.133 0-9.294 4.301-9.294 9.607 0 5.305 4.161 9.606 9.294 9.606Zm.003-5.49c2.2 0 3.983-1.843 3.983-4.117 0-2.273-1.784-4.117-3.983-4.117-2.2 0-3.983 1.844-3.983 4.117 0 2.274 1.783 4.118 3.983 4.118Z" clip-rule="evenodd" opacity=".15" style="mix-blend-mode:overlay"/><path fill="#fff" d="M2 39.517h6.359l14.837 23.316h-6.359L2 39.517Z" style=""/><path fill="#fff" fill-rule="evenodd" d="M18.89 36.503c-1.929-1.758-4.653-2.637-8.171-2.637H2v5.51h9.735c1.72 0 2.88.486 3.48 1.457.6.944.899 1.928.899 2.952 0 .603-.143 1.233-.43 1.889-.287.656-.756 1.233-1.407 1.732-.652.472-1.512.708-2.58.708H2v14.72h5.67v-9.17h4.065c2.372 0 4.3-.486 5.787-1.457 1.511-.97 2.593-2.204 3.245-3.7.677-1.521 1.016-3.148 1.016-4.88 0-3.017-.964-5.392-2.893-7.124Z" clip-rule="evenodd" style=""/><path fill="#fff" d="M43.684 57.814h-9.34l-2.296 5.507h-5.473l12.707-29.254h.306l12.707 29.254h-6.43l-2.181-5.507Zm-1.837-4.665-2.718-6.845-2.832 6.845h5.55Zm29.061-4.665c1.48.688 2.628 1.593 3.444 2.715.843 1.096 1.263 2.37 1.263 3.824 0 2.855-.944 4.958-2.832 6.31-1.862 1.325-4.197 1.988-7.004 1.988h-9.377V35.176h8.267c2.986 0 5.333.612 7.043 1.836 1.71 1.198 2.564 2.944 2.564 5.239 0 1.402-.293 2.638-.88 3.709-.587 1.045-1.417 1.886-2.488 2.524Zm-8.956-1.797h3.368c1.02 0 1.811-.306 2.373-.918.561-.638.842-1.415.842-2.333 0-.943-.32-1.657-.957-2.141-.638-.51-1.518-.765-2.641-.765h-2.985v6.157Zm3.56 11.471c1.3 0 2.347-.254 3.138-.764.816-.536 1.224-1.326 1.224-2.371 0-1.989-1.582-2.983-4.746-2.983h-3.176v6.118h3.56Zm68.691-22.982v29.292h-.154l-19.711-17.782.115 16.635h-5.626V34.067h.229l19.673 18.05-.114-16.94h5.588Zm21.186 22.638h-9.339l-2.297 5.507h-5.473l12.707-29.254h.306l12.708 29.254h-6.431l-2.181-5.507Zm-1.837-4.665-2.718-6.845-2.832 6.845h5.55Zm-71.564-16.96h19.796v5.656H81.988z" style=""/><path fill="#ECFD00" fill-rule="evenodd" d="M91.886 63.763c5.467 0 9.898-4.431 9.898-9.898 0-5.466-4.431-9.898-9.898-9.898-5.466 0-9.898 4.432-9.898 9.898 0 5.467 4.432 9.898 9.898 9.898Zm.003-5.656a4.242 4.242 0 1 0 0-8.484 4.242 4.242 0 0 0 0 8.484Z" clip-rule="evenodd" style=""/><g filter="url(#f)" opacity=".5" style="mix-blend-mode:overlay"><path fill="#000" fill-rule="evenodd" d="M22.98 40.355c-1.81-1.706-4.368-2.56-7.672-2.56H7.122v5.349h9.141c1.615 0 2.704.47 3.267 1.413.563.917.844 1.872.844 2.865 0 .586-.134 1.197-.403 1.834-.27.636-.71 1.197-1.322 1.68a3.052 3.052 0 0 1-.622.36l-4.934-8.016h-5.97l5.136 8.344H7.122v14.288h5.323V57.01h3.13l5.479 8.899h5.97l-6.077-9.872c.261-.133.511-.28.749-.44 1.42-.943 2.435-2.14 3.047-3.592.636-1.477.954-3.056.954-4.737 0-2.928-.905-5.233-2.716-6.914Zm14.512 20.684h8.77l2.048 5.345h6.037L42.416 37.99h-.288l-11.93 28.393h5.138l2.157-5.345Zm4.493-11.171 2.551 6.643h-5.21l2.659-6.643Zm33.073 4.75c-.767-1.088-1.846-1.967-3.235-2.635a6.45 6.45 0 0 0 2.336-2.45c.551-1.039.826-2.239.826-3.6 0-2.227-.802-3.921-2.407-5.084-1.606-1.188-3.81-1.782-6.613-1.782h-7.762v27.317h8.804c2.636 0 4.828-.644 6.577-1.93 1.773-1.311 2.66-3.353 2.66-6.124 0-1.41-.396-2.648-1.186-3.712Zm-8.482-4.38h-3.162v-5.975h2.803c1.054 0 1.88.248 2.48.742.599.47.898 1.163.898 2.079 0 .89-.264 1.645-.79 2.264-.528.594-1.27.89-2.229.89Zm3.127 10.393c-.743.495-1.725.742-2.947.742h-3.342v-5.938h2.983c2.97 0 4.456.965 4.456 2.895 0 1.014-.384 1.781-1.15 2.301Zm61.55-21.564v28.43h-.144L112.602 50.24l.108 16.145h-5.283V37.99h.215l18.472 17.518-.108-16.442h5.247Zm11.124 21.972h8.769l2.048 5.345h6.038L147.301 37.99h-.288l-11.931 28.393h5.139l2.156-5.345Zm4.492-11.171 2.552 6.643h-5.211l2.659-6.643Zm-46.055-9.818H82.227v5.49h18.587v-5.49Zm-9.293 26.763c5.132 0 9.293-4.3 9.293-9.606s-4.16-9.607-9.293-9.607c-5.133 0-9.294 4.3-9.294 9.607 0 5.305 4.161 9.606 9.294 9.606Zm.003-5.49c2.2 0 3.983-1.843 3.983-4.117s-1.784-4.117-3.983-4.117c-2.2 0-3.983 1.843-3.983 4.117s1.783 4.117 3.983 4.117Z" clip-rule="evenodd" style=""/></g><g fill="#000" fill-rule="evenodd" clip-rule="evenodd" mask="url(#g)" style=""><path d="m18.954 55.709-3.324-4.887c-.577.226-1.26.339-2.05.339H9.062l3.776 5.55h.784c2.103 0 3.88-.334 5.332-1.002Zm-8.509-13.366H2.322h.033L2 39.517h6.61l1.869 2.826h-.034Z" opacity=".2" style=""/></g><mask id="g" width="22" height="24" x="2" y="39" mask-type="alpha" maskUnits="userSpaceOnUse"><path fill="#CC0034" d="M2 39.517h6.359l14.837 23.316h-6.359L2 39.517Z" style=""/></mask><defs><linearGradient id="a" x1="52.5" x2="52.5" y1="5" y2="36" gradientUnits="userSpaceOnUse"><stop stop-color="#951B33"/><stop offset="1" stop-color="#A21B36" stop-opacity="0"/></linearGradient><linearGradient id="b" x1="119" x2="119" y1="3" y2="36" gradientUnits="userSpaceOnUse"><stop stop-color="#8F142C"/><stop offset="1" stop-color="#97142E" stop-opacity="0"/></linearGradient><linearGradient id="c" x1="35.5" x2="35.5" y1="11" y2="49.325" gradientUnits="userSpaceOnUse"><stop stop-color="#9B1732"/><stop offset="1" stop-color="#A21B36" stop-opacity="0"/></linearGradient><linearGradient id="d" x1="123" x2="123" y1="5" y2="75" gradientUnits="userSpaceOnUse"><stop stop-color="#9D1631"/><stop offset="1" stop-color="#A21B36" stop-opacity="0"/></linearGradient><linearGradient id="e" x1="127.5" x2="127.5" y1="4" y2="74" gradientUnits="userSpaceOnUse"><stop stop-color="#A21B36"/><stop offset="1" stop-color="#A21B36" stop-opacity="0"/></linearGradient><filter id="f" width="166.11" height="43.702" x=".122" y="30.795" color-interpolation-filters="sRGB" filterUnits="userSpaceOnUse"><feFlood flood-opacity="0" result="BackgroundImageFix"/><feBlend in="SourceGraphic" in2="BackgroundImageFix" result="shape"/><feGaussianBlur result="effect1_foregroundBlur" stdDeviation="3.5"/></filter></defs></svg>