<svg xmlns="http://www.w3.org/2000/svg" fill="none" width="221" height="39" viewBox="0 0 221 39"><path d="M56.388 22.39c.072.496.299.926.68 1.289.383.363.9.643 1.553.84.652.19 1.412.284 2.28.284.812 0 1.508-.067 2.09-.201.58-.142 1.026-.351 1.336-.627.319-.276.478-.608.478-.994 0-.316-.088-.576-.263-.78-.175-.214-.473-.387-.895-.521-.414-.134-.991-.237-1.731-.308l-3.32-.307c-1.647-.15-2.988-.446-4.022-.888-1.035-.441-1.8-1.025-2.293-1.75-.485-.734-.728-1.613-.728-2.638 0-1.207.358-2.236 1.075-3.088.716-.86 1.73-1.51 3.044-1.952 1.313-.45 2.85-.674 4.608-.674 1.711 0 3.236.245 4.573.733 1.345.49 2.407 1.18 3.187 2.07.788.884 1.222 1.901 1.302 3.053h-5.038c-.056-.418-.255-.781-.597-1.089-.343-.315-.812-.556-1.41-.721-.596-.166-1.3-.249-2.112-.249-.748 0-1.393.067-1.934.201-.542.127-.96.32-1.254.58-.286.26-.43.576-.43.946 0 .292.08.537.24.734.166.197.445.363.835.497.398.126.935.224 1.611.295l3.57.343c1.696.158 3.053.43 4.071.817 1.019.386 1.76.915 2.22 1.585.462.67.693 1.518.693 2.543 0 1.23-.374 2.315-1.122 3.253-.748.93-1.803 1.652-3.164 2.165-1.36.513-2.933.769-4.715.769-1.839 0-3.467-.256-4.883-.769-1.417-.52-2.523-1.25-3.32-2.188a5.15 5.15 0 0 1-1.253-3.253h5.038ZM91.1 20.52c-.063 1.483-.441 2.836-1.134 4.058-.684 1.222-1.695 2.2-3.032 2.934-1.33.725-2.937 1.088-4.823 1.088-1.887 0-3.598-.363-5.134-1.088-1.536-.734-2.75-1.798-3.641-3.194-.892-1.404-1.337-3.064-1.337-4.98 0-1.925.45-3.585 1.349-4.98.9-1.397 2.133-2.457 3.7-3.183 1.577-.733 3.355-1.1 5.337-1.1 1.91 0 3.594.296 5.05.887 1.457.592 2.623 1.412 3.498 2.46a7.825 7.825 0 0 1 1.72 3.632h-4.99a3.237 3.237 0 0 0-.968-1.537c-.477-.434-1.086-.765-1.826-.994-.733-.237-1.556-.355-2.472-.355-1.122 0-2.09.197-2.9.591a4.222 4.222 0 0 0-1.875 1.751c-.438.765-.657 1.708-.657 2.827 0 1.144.235 2.11.704 2.899.478.788 1.155 1.384 2.03 1.786.883.394 1.93.591 3.14.591 1.162 0 2.189-.161 3.08-.485.892-.33 1.6-.808 2.125-1.43.534-.632.844-1.389.931-2.272l2.126.094Zm-7.783 1.964V19.03h9.49v9.18H89.31l-.693-7.015.931 1.29h-6.231Zm39.205-1.703c-.175 1.553-.717 2.922-1.624 4.105-.899 1.175-2.097 2.09-3.594 2.744-1.488.647-3.171.97-5.05.97-2.061 0-3.88-.386-5.456-1.16-1.576-.772-2.797-1.857-3.665-3.252-.859-1.404-1.289-3.02-1.289-4.85 0-1.83.43-3.443 1.289-4.839.868-1.404 2.089-2.492 3.665-3.265 1.576-.773 3.395-1.159 5.456-1.159 1.879 0 3.562.327 5.05.982 1.497.646 2.695 1.561 3.594 2.744.907 1.175 1.449 2.54 1.624 4.093h-4.979a4.088 4.088 0 0 0-.931-1.916c-.462-.536-1.063-.946-1.803-1.23-.74-.284-1.596-.426-2.567-.426-1.106 0-2.065.2-2.877.603a4.257 4.257 0 0 0-1.862 1.739c-.43.757-.645 1.648-.645 2.673 0 1.026.215 1.917.645 2.674a4.257 4.257 0 0 0 1.862 1.739c.812.402 1.771.603 2.877.603.987 0 1.847-.134 2.579-.402.74-.276 1.341-.678 1.803-1.207.462-.536.768-1.19.919-1.963h4.979Zm5.444 4.01v-3.94h12.321v3.94h-12.321Zm9.516-14.326 8.142 17.745h-5.277l-6.841-15.65h1.433l-6.829 15.65h-5.289l8.154-17.745h6.507Zm13.656 11.925c.071.496.298.926.68 1.289.382.363.899.643 1.552.84.653.19 1.413.284 2.28.284.812 0 1.509-.067 2.09-.201.581-.142 1.026-.351 1.337-.627.318-.276.477-.608.477-.994 0-.316-.087-.576-.262-.78-.175-.214-.474-.387-.896-.521-.414-.134-.991-.237-1.731-.308l-3.319-.307c-1.647-.15-2.988-.446-4.023-.888-1.035-.441-1.799-1.025-2.292-1.75-.486-.734-.729-1.613-.729-2.638 0-1.207.359-2.236 1.075-3.088.716-.86 1.731-1.51 3.044-1.952 1.313-.45 2.85-.674 4.609-.674 1.711 0 3.235.245 4.572.733 1.345.49 2.408 1.18 3.188 2.07.788.884 1.221 1.901 1.301 3.053h-5.038c-.056-.418-.255-.781-.597-1.089-.342-.315-.812-.556-1.409-.721-.597-.166-1.301-.249-2.113-.249-.748 0-1.393.067-1.934.201-.541.127-.959.32-1.254.58-.286.26-.429.576-.429.946 0 .292.079.537.238.734.168.197.446.363.836.497.398.126.935.224 1.612.295l3.569.343c1.696.158 3.053.43 4.072.817 1.018.386 1.759.915 2.22 1.585.462.67.693 1.518.693 2.543 0 1.23-.374 2.315-1.123 3.253-.748.93-1.802 1.652-3.163 2.165-1.361.513-2.933.769-4.716.769-1.839 0-3.466-.256-4.883-.769-1.417-.52-2.523-1.25-3.319-2.188a5.152 5.152 0 0 1-1.254-3.253h5.039ZM167.5 10.465h4.955V28.21H167.5V10.465Zm25.35 14.314-1.516.308V10.465h4.799V28.21h-6.232L179.55 13.612l1.517-.307V28.21h-4.812V10.465h6.411L192.85 24.78Zm16.945 3.821c-2.101 0-3.959-.386-5.575-1.16-1.608-.772-2.853-1.857-3.737-3.252-.883-1.404-1.325-3.02-1.325-4.85 0-1.83.442-3.443 1.325-4.839.884-1.404 2.129-2.492 3.737-3.265 1.616-.773 3.474-1.159 5.575-1.159 2.102 0 3.956.386 5.564 1.16 1.608.772 2.853 1.86 3.737 3.264.891 1.396 1.337 3.009 1.337 4.838 0 1.83-.446 3.447-1.337 4.85-.884 1.396-2.129 2.48-3.737 3.254-1.608.773-3.462 1.159-5.564 1.159Zm0-4.389c1.147 0 2.141-.193 2.985-.58.852-.394 1.504-.958 1.958-1.691.462-.733.693-1.6.693-2.603 0-1.001-.231-1.869-.693-2.602-.454-.733-1.106-1.293-1.958-1.68-.844-.394-1.838-.591-2.985-.591-1.154 0-2.156.197-3.008.591-.844.387-1.492.947-1.946 1.68-.454.733-.681 1.6-.681 2.602 0 1.002.227 1.87.681 2.603.454.733 1.102 1.297 1.946 1.692.852.386 1.854.58 3.008.58Z" fill="#17006B"/><path d="M33.667 0H5.417A5.41 5.41 0 0 0 0 5.405v28.19A5.41 5.41 0 0 0 5.417 39h28.25a5.41 5.41 0 0 0 5.416-5.405V5.405A5.41 5.41 0 0 0 33.667 0Z" fill="#4E20FF"/><path d="m10.337 12.456-5.35 5.773c-.965 1.04-.227 2.73 1.191 2.73h11.057c.684 0 .904-.92.294-1.23l-3.371-1.71c-.915-.464-.585-1.844.441-1.844h7.272a.65.65 0 0 0 .46-.19l5.125-5.125a.65.65 0 0 0-.46-1.11H16.535a8.45 8.45 0 0 0-6.198 2.706Zm18.039 14.375 5.35-5.773c.965-1.04.227-2.73-1.191-2.73H21.478c-.684 0-.904.92-.294 1.23l3.371 1.71c.915.464.585 1.845-.44 1.845h-7.273a.65.65 0 0 0-.46.19l-5.125 5.125a.65.65 0 0 0 .46 1.11h10.461a8.45 8.45 0 0 0 6.198-2.707Z" fill="#fff" fill-rule="evenodd" clip-rule="evenodd"/></svg>